<svg width="62" height="17" viewBox="0 0 62 17" fill="none" xmlns="http://www.w3.org/2000/svg">
<path d="M0.899902 7.9C0.899902 6.75334 1.0999 5.70667 1.4999 4.76C1.91324 3.81334 2.45324 3.04 3.1199 2.44C3.7999 1.82667 4.5599 1.35334 5.3999 1.02C6.2399 0.68667 7.11324 0.520004 8.0199 0.520004C8.92657 0.520004 9.7999 0.68667 10.6399 1.02C11.4799 1.35334 12.2332 1.82667 12.8999 2.44C13.5799 3.04 14.1199 3.81334 14.5199 4.76C14.9332 5.70667 15.1399 6.75334 15.1399 7.9C15.1399 10.02 14.4732 11.7667 13.1399 13.14L14.7999 15L13.4599 16.18L11.7399 14.28C10.6199 14.96 9.3799 15.3 8.0199 15.3C6.80657 15.3 5.66657 15.02 4.5999 14.46C3.53324 13.9 2.64657 13.0467 1.9399 11.9C1.24657 10.7533 0.899902 9.42 0.899902 7.9ZM4.3999 3.8C3.3999 4.77334 2.8999 6.14 2.8999 7.9C2.8999 9.66 3.3999 11.0333 4.3999 12.02C5.3999 13.0067 6.60657 13.5 8.0199 13.5C8.92657 13.5 9.75324 13.2933 10.4999 12.88L8.0399 10.12L9.3999 8.94L11.8799 11.74C12.7199 10.7267 13.1399 9.44667 13.1399 7.9C13.1399 6.14 12.6399 4.77334 11.6399 3.8C10.6399 2.81334 9.43324 2.32 8.0199 2.32C6.60657 2.32 5.3999 2.81334 4.3999 3.8Z" fill="url(#paint0_linear)"/>
<path d="M19.6151 12.72C20.2017 13.32 20.9151 13.62 21.7551 13.62C22.5951 13.62 23.3017 13.32 23.8751 12.72C24.4617 12.1067 24.7551 11.26 24.7551 10.18C24.7551 9.11334 24.4617 8.28 23.8751 7.68C23.3017 7.06667 22.5951 6.76 21.7551 6.76C20.9151 6.76 20.2017 7.06667 19.6151 7.68C19.0417 8.28 18.7551 9.11334 18.7551 10.18C18.7551 11.26 19.0417 12.1067 19.6151 12.72ZM18.2151 6.54C19.1484 5.56667 20.3284 5.08 21.7551 5.08C23.1817 5.08 24.3551 5.56667 25.2751 6.54C26.2084 7.5 26.6751 8.71334 26.6751 10.18C26.6751 11.66 26.2151 12.8867 25.2951 13.86C24.3751 14.82 23.1951 15.3 21.7551 15.3C20.3151 15.3 19.1351 14.82 18.2151 13.86C17.2951 12.8867 16.8351 11.66 16.8351 10.18C16.8351 8.71334 17.2951 7.5 18.2151 6.54Z" fill="url(#paint1_linear)"/>
<path d="M31.0604 12.72C31.647 13.32 32.3604 13.62 33.2004 13.62C34.0404 13.62 34.747 13.32 35.3204 12.72C35.907 12.1067 36.2004 11.26 36.2004 10.18C36.2004 9.11334 35.907 8.28 35.3204 7.68C34.747 7.06667 34.0404 6.76 33.2004 6.76C32.3604 6.76 31.647 7.06667 31.0604 7.68C30.487 8.28 30.2004 9.11334 30.2004 10.18C30.2004 11.26 30.487 12.1067 31.0604 12.72ZM29.6604 6.54C30.5937 5.56667 31.7737 5.08 33.2004 5.08C34.627 5.08 35.8004 5.56667 36.7204 6.54C37.6537 7.5 38.1204 8.71334 38.1204 10.18C38.1204 11.66 37.6604 12.8867 36.7404 13.86C35.8204 14.82 34.6404 15.3 33.2004 15.3C31.7604 15.3 30.5804 14.82 29.6604 13.86C28.7404 12.8867 28.2804 11.66 28.2804 10.18C28.2804 8.71334 28.7404 7.5 29.6604 6.54Z" fill="url(#paint2_linear)"/>
<path d="M45.8657 5.28V7.28C45.5857 7.24 45.3123 7.22 45.0457 7.22C43.2857 7.22 42.4057 8.20667 42.4057 10.18V15H40.5257V5.38H42.3657V7.06C42.9523 5.83334 43.9123 5.22 45.2457 5.22C45.459 5.22 45.6657 5.24 45.8657 5.28Z" fill="url(#paint3_linear)"/>
<path d="M48.8918 10.16C48.8918 11.1733 49.1384 12 49.6318 12.64C50.1384 13.28 50.8318 13.6 51.7118 13.6C52.5518 13.6 53.2251 13.2733 53.7318 12.62C54.2384 11.9667 54.4918 11.1333 54.4918 10.12C54.4918 9.12 54.2451 8.31334 53.7518 7.7C53.2584 7.08667 52.5851 6.78 51.7318 6.78C50.8784 6.78 50.1918 7.09334 49.6718 7.72C49.1518 8.34667 48.8918 9.16 48.8918 10.16ZM54.5118 13.7V13.54C54.2584 14.0333 53.8718 14.4467 53.3518 14.78C52.8451 15.1 52.2384 15.26 51.5318 15.26C50.1584 15.26 49.0518 14.78 48.2118 13.82C47.3851 12.8467 46.9718 11.6267 46.9718 10.16C46.9718 8.76 47.3984 7.57334 48.2518 6.6C49.1051 5.61334 50.1984 5.12 51.5318 5.12C52.3184 5.12 52.9584 5.28 53.4518 5.6C53.9451 5.90667 54.2851 6.28667 54.4718 6.74V0.520004H56.3318V13.22C56.3318 13.8733 56.3651 14.4667 56.4318 15H54.6118C54.5451 14.6267 54.5118 14.1933 54.5118 13.7Z" fill="url(#paint4_linear)"/>
<path d="M61.3896 15H59.5296V5.38H61.3896V15ZM59.4896 2.7C59.2363 2.43334 59.1096 2.11334 59.1096 1.74C59.1096 1.36667 59.2363 1.04667 59.4896 0.780005C59.7563 0.513338 60.0763 0.380005 60.4496 0.380005C60.8229 0.380005 61.1429 0.513338 61.4096 0.780005C61.6763 1.03334 61.8096 1.35334 61.8096 1.74C61.8096 2.11334 61.6763 2.43334 61.4096 2.7C61.1429 2.95334 60.8229 3.08 60.4496 3.08C60.0763 3.08 59.7563 2.95334 59.4896 2.7Z" fill="url(#paint5_linear)"/>
<defs>
<linearGradient id="paint0_linear" x1="14.9235" y1="-7.875" x2="48.2324" y2="15.4209" gradientUnits="userSpaceOnUse">
<stop stop-color="#873CE6"/>
<stop offset="1" stop-color="#E774BF"/>
</linearGradient>
<linearGradient id="paint1_linear" x1="14.9235" y1="-7.875" x2="48.2324" y2="15.4209" gradientUnits="userSpaceOnUse">
<stop stop-color="#873CE6"/>
<stop offset="1" stop-color="#E774BF"/>
</linearGradient>
<linearGradient id="paint2_linear" x1="14.9235" y1="-7.875" x2="48.2324" y2="15.4209" gradientUnits="userSpaceOnUse">
<stop stop-color="#873CE6"/>
<stop offset="1" stop-color="#E774BF"/>
</linearGradient>
<linearGradient id="paint3_linear" x1="14.9235" y1="-7.875" x2="48.2324" y2="15.4209" gradientUnits="userSpaceOnUse">
<stop stop-color="#873CE6"/>
<stop offset="1" stop-color="#E774BF"/>
</linearGradient>
<linearGradient id="paint4_linear" x1="14.9235" y1="-7.875" x2="48.2324" y2="15.4209" gradientUnits="userSpaceOnUse">
<stop stop-color="#873CE6"/>
<stop offset="1" stop-color="#E774BF"/>
</linearGradient>
<linearGradient id="paint5_linear" x1="14.9235" y1="-7.875" x2="48.2324" y2="15.4209" gradientUnits="userSpaceOnUse">
<stop stop-color="#873CE6"/>
<stop offset="1" stop-color="#E774BF"/>
</linearGradient>
</defs>
</svg>
