<svg width="124" height="24" viewBox="0 0 124 24" fill="none" xmlns="http://www.w3.org/2000/svg">
<path d="M44.2318 17.232C43.4158 15.856 43.0078 14.272 43.0078 12.48C43.0078 10.688 43.4158 9.11197 44.2318 7.75197C45.0638 6.37597 46.1278 5.34397 47.4238 4.65597C48.7198 3.96797 50.1278 3.62397 51.6478 3.62397C53.1678 3.62397 54.5758 3.96797 55.8718 4.65597C57.1678 5.34397 58.2318 6.37597 59.0638 7.75197C59.8958 9.11197 60.3118 10.688 60.3118 12.48C60.3118 14.896 59.5758 16.92 58.1038 18.552L60.1198 20.808L58.1758 22.464L56.0878 20.184C54.7438 20.968 53.2638 21.36 51.6478 21.36C50.1278 21.36 48.7198 21.016 47.4238 20.328C46.1278 19.64 45.0638 18.608 44.2318 17.232ZM47.6398 7.96797C46.5198 9.03997 45.9598 10.544 45.9598 12.48C45.9598 14.416 46.5198 15.928 47.6398 17.016C48.7598 18.088 50.0958 18.624 51.6478 18.624C52.5918 18.624 53.4398 18.44 54.1918 18.072L51.3838 14.952L53.3518 13.272L56.1838 16.416C56.9678 15.344 57.3598 14.032 57.3598 12.48C57.3598 10.544 56.7918 9.03997 55.6558 7.96797C54.5358 6.87997 53.1998 6.33597 51.6478 6.33597C50.0958 6.33597 48.7598 6.87997 47.6398 7.96797Z" fill="black"/>
<path d="M67.1672 17.88C67.8072 18.536 68.5832 18.864 69.4952 18.864C70.4072 18.864 71.1752 18.536 71.7992 17.88C72.4392 17.224 72.7592 16.312 72.7592 15.144C72.7592 13.992 72.4392 13.096 71.7992 12.456C71.1752 11.8 70.4072 11.472 69.4952 11.472C68.5832 11.472 67.8072 11.8 67.1672 12.456C66.5432 13.096 66.2312 13.992 66.2312 15.144C66.2312 16.296 66.5432 17.208 67.1672 17.88ZM69.4952 8.95197C71.2552 8.95197 72.7032 9.53597 73.8392 10.704C74.9912 11.872 75.5672 13.352 75.5672 15.144C75.5672 16.936 74.9912 18.424 73.8392 19.608C72.7032 20.776 71.2552 21.36 69.4952 21.36C67.7512 21.36 66.3032 20.776 65.1512 19.608C64.0152 18.424 63.4472 16.936 63.4472 15.144C63.4472 13.352 64.0152 11.872 65.1512 10.704C66.3032 9.53597 67.7512 8.95197 69.4952 8.95197Z" fill="black"/>
<path d="M82.2656 17.88C82.9056 18.536 83.6816 18.864 84.5936 18.864C85.5056 18.864 86.2736 18.536 86.8976 17.88C87.5376 17.224 87.8576 16.312 87.8576 15.144C87.8576 13.992 87.5376 13.096 86.8976 12.456C86.2736 11.8 85.5056 11.472 84.5936 11.472C83.6816 11.472 82.9056 11.8 82.2656 12.456C81.6416 13.096 81.3296 13.992 81.3296 15.144C81.3296 16.296 81.6416 17.208 82.2656 17.88ZM84.5936 8.95197C86.3536 8.95197 87.8016 9.53597 88.9376 10.704C90.0896 11.872 90.6656 13.352 90.6656 15.144C90.6656 16.936 90.0896 18.424 88.9376 19.608C87.8016 20.776 86.3536 21.36 84.5936 21.36C82.8496 21.36 81.4016 20.776 80.2496 19.608C79.1136 18.424 78.5456 16.936 78.5456 15.144C78.5456 13.352 79.1136 11.872 80.2496 10.704C81.4016 9.53597 82.8496 8.95197 84.5936 8.95197Z" fill="black"/>
<path d="M101.396 9.23997V12.072C101.076 12.024 100.772 12 100.484 12C98.3881 12 97.3401 13.144 97.3401 15.432V21H94.5561V9.31197H97.2681V11.184C97.5401 10.56 97.9801 10.072 98.5881 9.71997C99.1961 9.35197 99.8841 9.16797 100.652 9.16797C100.908 9.16797 101.156 9.19197 101.396 9.23997Z" fill="black"/>
<path d="M106.675 15.12C106.675 16.24 106.963 17.144 107.539 17.832C108.115 18.504 108.875 18.84 109.819 18.84C110.731 18.84 111.475 18.496 112.051 17.808C112.627 17.12 112.915 16.216 112.915 15.096C112.915 13.992 112.635 13.112 112.075 12.456C111.515 11.8 110.771 11.472 109.843 11.472C108.915 11.472 108.155 11.808 107.563 12.48C106.971 13.136 106.675 14.016 106.675 15.12ZM115.603 3.62397V18.864C115.603 19.648 115.643 20.36 115.723 21H113.059C112.979 20.552 112.939 20.048 112.939 19.488C112.651 20.016 112.203 20.448 111.595 20.784C110.987 21.12 110.291 21.288 109.507 21.288C107.843 21.288 106.491 20.704 105.451 19.536C104.411 18.368 103.891 16.896 103.891 15.12C103.891 13.408 104.411 11.96 105.451 10.776C106.507 9.59197 107.843 8.99997 109.459 8.99997C110.387 8.99997 111.131 9.16797 111.691 9.50397C112.267 9.83997 112.667 10.232 112.891 10.68V3.62397H115.603Z" fill="black"/>
<path d="M123.2 21H120.44V9.31197H123.2V21ZM120.536 6.47997C120.184 6.12797 120.008 5.70397 120.008 5.20797C120.008 4.71197 120.184 4.28797 120.536 3.93597C120.888 3.56797 121.312 3.38397 121.808 3.38397C122.32 3.38397 122.752 3.55997 123.104 3.91197C123.456 4.26397 123.632 4.69597 123.632 5.20797C123.632 5.70397 123.456 6.12797 123.104 6.47997C122.752 6.83197 122.32 7.00797 121.808 7.00797C121.312 7.00797 120.888 6.83197 120.536 6.47997Z" fill="black"/>
<path d="M13.7139 15.7714C13.7139 14.6353 14.6349 13.7143 15.771 13.7143H27.0853C28.2214 13.7143 29.1424 14.6353 29.1424 15.7714V21.9429C29.1424 23.079 28.2214 24 27.0853 24H15.771C14.6349 24 13.7139 23.079 13.7139 21.9429V15.7714Z" fill="#34ADF1"/>
<path d="M18.8574 2.05714C18.8574 0.921014 19.7784 0 20.9146 0H27.086C28.2221 0 29.1431 0.921014 29.1431 2.05714V8.22857C29.1431 9.3647 28.2221 10.2857 27.086 10.2857H20.9146C19.7784 10.2857 18.8574 9.3647 18.8574 8.22857V2.05714Z" fill="#FA945C"/>
<path d="M0 2.05714C0 0.921014 0.921015 0 2.05714 0H13.3714C14.5076 0 15.4286 0.921014 15.4286 2.05714V8.22857C15.4286 9.3647 14.5076 10.2857 13.3714 10.2857H2.05714C0.921014 10.2857 0 9.3647 0 8.22857V2.05714Z" fill="#F2BC30"/>
<path d="M0 15.7714C0 14.6353 0.921014 13.7143 2.05714 13.7143H8.22857C9.3647 13.7143 10.2857 14.6353 10.2857 15.7714V21.9429C10.2857 23.079 9.3647 24 8.22857 24H2.05714C0.921014 24 0 23.079 0 21.9429V15.7714Z" fill="#E774BF"/>
</svg>
